<?xml version="1.0" encoding="UTF-8" standalone="no"?>
<!DOCTYPE svg PUBLIC "-//W3C//DTD SVG 1.1//EN" "http://www.w3.org/Graphics/SVG/1.1/DTD/svg11.dtd">
<svg width="100%" height="100%" viewBox="0 0 2000 2000" version="1.1" xmlns="http://www.w3.org/2000/svg" xmlns:xlink="http://www.w3.org/1999/xlink" xml:space="preserve" xmlns:serif="http://www.serif.com/" style="fill-rule:evenodd;clip-rule:evenodd;stroke-linejoin:round;stroke-miterlimit:2;">
    <ellipse cx="1000.02" cy="1000" rx="799.981" ry="799.975" style="fill:none;"/>
    <clipPath id="_clip1">
        <ellipse cx="1000.02" cy="1000" rx="799.981" ry="799.975"/>
    </clipPath>
    <g clip-path="url(#_clip1)">
        <g id="Mask">
            <path d="M1601.93,851.711C1605.5,843.029 1604.39,833.123 1598.98,825.448C1593.58,817.773 1584.62,813.393 1575.24,813.837C1531.85,815.843 1465.22,804.199 1410.63,730.784C1238.73,499.635 761.275,500.192 589.374,730.784C539.705,797.411 467.286,809.478 421.741,809.566C412.58,809.556 404.017,814.118 398.915,821.727C393.813,829.336 392.844,838.989 396.331,847.461C437.161,946.653 539.666,1195.63 576.192,1284.35C585.047,1305.86 600.691,1323.89 620.739,1335.68C872.832,1483.53 1124.89,1472.33 1376.95,1335.41C1398.45,1323.71 1415.27,1304.98 1424.58,1282.35C1461.32,1193.25 1560.3,952.822 1601.93,851.711ZM647.871,880.721C634.194,882.544 621.61,872.921 619.786,859.244C617.963,845.567 627.586,832.983 641.263,831.159C641.263,831.159 664.186,828.105 685.958,821.075C696.45,817.687 707.329,814.46 711.927,808.322C765.507,736.787 878.245,697.496 992.413,696.723C1106.58,695.949 1220.64,733.647 1276.82,808.273C1281.16,814.039 1291.42,817.273 1301.29,820.681L1343.54,831.255C1357.16,833.438 1366.45,846.272 1364.27,859.896C1362.08,873.52 1349.25,882.808 1335.63,880.625C1335.63,880.625 1299.95,874.839 1272.27,863.085C1256.89,856.557 1243.98,847.779 1236.88,838.346C1188.92,774.652 1090.19,746.062 992.751,746.722C895.316,747.382 797.673,777.245 751.946,838.297C744.497,848.242 730.918,857.27 714.739,863.813C685.542,875.623 647.878,880.72 647.871,880.721ZM647.871,880.721C647.871,880.721 647.871,880.721 647.871,880.721ZM640.195,1027.8C874.755,1069.46 1109.32,1068.71 1343.88,1027.82C1357.47,1025.44 1366.58,1012.49 1364.21,998.893C1361.84,985.3 1348.88,976.188 1335.29,978.558C1106.51,1018.45 877.722,1019.21 648.939,978.572C635.354,976.159 622.365,985.23 619.952,998.815C617.539,1012.4 626.61,1025.39 640.195,1027.8ZM631.209,1174.32C870.094,1336.1 1111.14,1340.21 1354.33,1174.27C1365.73,1166.49 1368.67,1150.92 1360.89,1139.52C1353.12,1128.13 1337.55,1125.19 1326.15,1132.96C1101.87,1286.01 879.559,1282.13 659.247,1132.92C647.823,1125.18 632.266,1128.17 624.529,1139.6C616.791,1151.02 619.785,1166.58 631.209,1174.32Z"/>
            <path d="M301.411,1256.11C305.385,1259.12 309.477,1261.81 313.684,1264.21C355.225,1287.94 405.761,1283.09 458.492,1277.41C493.574,1273.63 529.562,1269.09 565.007,1269.01L572.031,1286.07C577.267,1298.79 584.781,1310.34 594.118,1320.19C534.246,1314.27 471.165,1328.72 413.142,1331.34C384.178,1332.64 356.389,1331.17 330.444,1324.38C319.677,1302.21 309.978,1279.43 301.411,1256.11ZM492.959,803.663L502.739,807.307L504.015,823.172C518.042,997.541 584.011,1078.04 636.521,1291.34L608.698,1321.62C596.341,1311.13 586.59,1297.79 580.353,1282.64L574.779,1269.1C576.255,1269.13 577.724,1269.17 579.192,1269.22C529.34,1083.84 471.716,1000.55 455.708,843.946C436.494,838.857 417.432,837.792 398.969,840.068C398.232,834.582 399.496,828.94 402.653,824.233C406.918,817.871 414.077,814.058 421.736,814.066C441.752,814.027 466.834,811.708 492.959,803.663ZM259.81,856.545C253.573,888.858 249.403,921.91 247.443,955.548C226.609,995.725 217.114,1041.79 224.685,1086.39C237.89,1164.18 258.525,1212.86 285.937,1242.12C295.041,1268.95 305.617,1295.11 317.584,1320.52C299.418,1314.32 282.257,1305.16 266.355,1292.09C226.309,1259.19 193.271,1200.1 175.39,1094.76C161.073,1010.41 195.335,921.412 254.748,861.519C256.415,859.839 258.1,858.182 259.81,856.545ZM272.207,845.365C328.972,797.23 403.242,774.523 478.174,798.416C457.452,803.48 437.866,805.035 421.732,805.066C411.082,805.054 401.116,810.364 395.177,819.221C390.753,825.82 388.998,833.74 390.071,841.429C352.66,848.265 318.085,868.668 290.245,896.732C278.52,908.552 267.943,921.746 258.81,935.934C261.44,905.177 265.945,874.951 272.207,845.365Z"/>
            <path d="M1699.82,1252.84C1691.08,1277 1681.12,1300.58 1670.04,1323.47C1643.14,1331.04 1614.19,1332.7 1583.96,1331.34C1526.55,1328.75 1464.19,1314.57 1404.88,1320.01C1415.04,1309.78 1423.18,1297.59 1428.74,1284.06L1434.94,1269.02C1469.47,1269.33 1504.47,1273.73 1538.61,1277.41C1591.34,1283.09 1641.88,1287.94 1683.42,1264.21C1689.1,1260.97 1694.57,1257.2 1699.82,1252.84ZM1499.11,806.249C1527.37,817.109 1554.15,819.317 1575.45,818.333C1583.3,817.961 1590.78,821.622 1595.3,828.039C1598.01,831.876 1599.43,836.38 1599.49,840.934C1580,837.072 1560.36,837.391 1541.49,843.06C1525.61,1000.22 1467.86,1083.48 1417.91,1269.22C1420.34,1269.14 1422.76,1269.08 1425.2,1269.05L1420.42,1280.63C1413.71,1296.94 1402.93,1311.14 1389.24,1321.93L1388.76,1322.01L1360.58,1291.34C1413.09,1078.04 1479.06,997.541 1493.09,823.172L1494.28,808.413L1499.11,806.249ZM1749.01,876.633C1802.31,936.039 1834.81,1017.61 1821.71,1094.76C1803.83,1200.1 1770.8,1259.19 1730.75,1292.09C1717.92,1302.63 1704.27,1310.63 1689.93,1316.59C1703.6,1286.89 1715.4,1256.16 1725.18,1224.56C1745.7,1194.57 1761.57,1150.31 1772.42,1086.39C1778.31,1051.7 1772.55,1016.1 1758.82,983.066C1758.03,946.932 1754.71,911.417 1749.01,876.633ZM1742.34,950.599C1722.85,918.35 1696.06,890.165 1666.15,869.977C1647.87,857.639 1628.31,848.231 1608.45,843.001C1608.83,835.926 1606.86,828.813 1602.66,822.856C1596.37,813.923 1585.94,808.826 1575.03,809.342C1556.96,810.178 1534.78,808.573 1511.14,800.905C1570.29,776.028 1637.07,790.032 1694.12,828.532C1706.76,837.06 1718.88,846.78 1730.29,857.485C1736.2,887.907 1740.26,918.986 1742.34,950.599Z"/>
        </g>
    </g>
    <path d="M1000.02,200.025C1441.54,200.025 1800,558.482 1800,1000C1800,1441.52 1441.54,1799.98 1000.02,1799.98C558.497,1799.98 200.037,1441.52 200.037,1000C200.037,558.482 558.497,200.025 1000.02,200.025ZM1000.02,250.025C1413.94,250.025 1750,586.077 1750,1000C1750,1413.92 1413.94,1749.98 1000.02,1749.98C586.093,1749.98 250.037,1413.92 250.037,1000C250.037,586.077 586.093,250.025 1000.02,250.025Z"/>
</svg>
