<?xml version="1.0" encoding="UTF-8" standalone="no"?>
<!DOCTYPE svg PUBLIC "-//W3C//DTD SVG 1.1//EN" "http://www.w3.org/Graphics/SVG/1.1/DTD/svg11.dtd">
<svg width="100%" height="100%" viewBox="0 0 779 112" version="1.1" xmlns="http://www.w3.org/2000/svg" xmlns:xlink="http://www.w3.org/1999/xlink" xml:space="preserve" style="fill-rule:evenodd;clip-rule:evenodd;stroke-linejoin:round;stroke-miterlimit:2;">
    <g transform="matrix(1,0,0,1,-123,-244)">
        <g transform="matrix(1,0,0,1,11.846,-29.9282)">
            <g id="Logo" transform="matrix(0.0693735,0,0,0.0693735,97.854,260.555)">
                <ellipse cx="1000.02" cy="1000" rx="799.981" ry="799.975" style="fill:none;"/>
                <clipPath id="_clip1">
                    <ellipse cx="1000.02" cy="1000" rx="799.981" ry="799.975"/>
                </clipPath>
                <g clip-path="url(#_clip1)">
                    <g id="Mask">
                        <path d="M1601.93,851.711C1605.5,843.029 1604.39,833.123 1598.98,825.448C1593.58,817.773 1584.62,813.393 1575.24,813.837C1531.85,815.843 1465.22,804.199 1410.63,730.784C1238.73,499.635 761.275,500.192 589.374,730.784C539.705,797.411 467.286,809.478 421.741,809.566C412.58,809.556 404.017,814.118 398.915,821.727C393.813,829.336 392.844,838.989 396.331,847.461C437.161,946.653 539.666,1195.63 576.192,1284.35C585.047,1305.86 600.691,1323.89 620.739,1335.68C872.832,1483.53 1124.89,1472.33 1376.95,1335.41C1398.45,1323.71 1415.27,1304.98 1424.58,1282.35C1461.32,1193.25 1560.3,952.822 1601.93,851.711ZM647.871,880.721C634.194,882.544 621.61,872.921 619.786,859.244C617.963,845.567 627.586,832.983 641.263,831.159C641.263,831.159 664.186,828.105 685.958,821.075C696.45,817.687 707.329,814.46 711.927,808.322C765.507,736.787 878.245,697.496 992.413,696.723C1106.58,695.949 1220.64,733.647 1276.82,808.273C1281.16,814.039 1291.42,817.273 1301.29,820.681L1343.54,831.255C1357.16,833.438 1366.45,846.272 1364.27,859.896C1362.08,873.52 1349.25,882.808 1335.63,880.625C1335.63,880.625 1299.95,874.839 1272.27,863.085C1256.89,856.557 1243.98,847.779 1236.88,838.346C1188.92,774.652 1090.19,746.062 992.751,746.722C895.316,747.382 797.673,777.245 751.946,838.297C744.497,848.242 730.918,857.27 714.739,863.813C685.542,875.623 647.878,880.72 647.871,880.721ZM647.871,880.721C647.871,880.721 647.871,880.721 647.871,880.721ZM640.195,1027.8C874.755,1069.46 1109.32,1068.71 1343.88,1027.82C1357.47,1025.44 1366.58,1012.49 1364.21,998.893C1361.84,985.3 1348.88,976.188 1335.29,978.558C1106.51,1018.45 877.722,1019.21 648.939,978.572C635.354,976.159 622.365,985.23 619.952,998.815C617.539,1012.4 626.61,1025.39 640.195,1027.8ZM631.209,1174.32C870.094,1336.1 1111.14,1340.21 1354.33,1174.27C1365.73,1166.49 1368.67,1150.92 1360.89,1139.52C1353.12,1128.13 1337.55,1125.19 1326.15,1132.96C1101.87,1286.01 879.559,1282.13 659.247,1132.92C647.823,1125.18 632.266,1128.17 624.529,1139.6C616.791,1151.02 619.785,1166.58 631.209,1174.32Z"/>
                        <path d="M301.411,1256.11C305.385,1259.12 309.477,1261.81 313.684,1264.21C355.225,1287.94 405.761,1283.09 458.492,1277.41C493.574,1273.63 529.562,1269.09 565.007,1269.01L572.031,1286.07C577.267,1298.79 584.781,1310.34 594.118,1320.19C534.246,1314.27 471.165,1328.72 413.142,1331.34C384.178,1332.64 356.389,1331.17 330.444,1324.38C319.677,1302.21 309.978,1279.43 301.411,1256.11ZM492.959,803.663L502.739,807.307L504.015,823.172C518.042,997.541 584.011,1078.04 636.521,1291.34L608.698,1321.62C596.341,1311.13 586.59,1297.79 580.353,1282.64L574.779,1269.1C576.255,1269.13 577.724,1269.17 579.192,1269.22C529.34,1083.84 471.716,1000.55 455.708,843.946C436.494,838.857 417.432,837.792 398.969,840.068C398.232,834.582 399.496,828.94 402.653,824.233C406.918,817.871 414.077,814.058 421.736,814.066C441.752,814.027 466.834,811.708 492.959,803.663ZM259.81,856.545C253.573,888.858 249.403,921.91 247.443,955.548C226.609,995.725 217.114,1041.79 224.685,1086.39C237.89,1164.18 258.525,1212.86 285.937,1242.12C295.041,1268.95 305.617,1295.11 317.584,1320.52C299.418,1314.32 282.257,1305.16 266.355,1292.09C226.309,1259.19 193.271,1200.1 175.39,1094.76C161.073,1010.41 195.335,921.412 254.748,861.519C256.415,859.839 258.1,858.182 259.81,856.545ZM272.207,845.365C328.972,797.23 403.242,774.523 478.174,798.416C457.452,803.48 437.866,805.035 421.732,805.066C411.082,805.054 401.116,810.364 395.177,819.221C390.753,825.82 388.998,833.74 390.071,841.429C352.66,848.265 318.085,868.668 290.245,896.732C278.52,908.552 267.943,921.746 258.81,935.934C261.44,905.177 265.945,874.951 272.207,845.365Z"/>
                        <path d="M1699.82,1252.84C1691.08,1277 1681.12,1300.58 1670.04,1323.47C1643.14,1331.04 1614.19,1332.7 1583.96,1331.34C1526.55,1328.75 1464.19,1314.57 1404.88,1320.01C1415.04,1309.78 1423.18,1297.59 1428.74,1284.06L1434.94,1269.02C1469.47,1269.33 1504.47,1273.73 1538.61,1277.41C1591.34,1283.09 1641.88,1287.94 1683.42,1264.21C1689.1,1260.97 1694.57,1257.2 1699.82,1252.84ZM1499.11,806.249C1527.37,817.109 1554.15,819.317 1575.45,818.333C1583.3,817.961 1590.78,821.622 1595.3,828.039C1598.01,831.876 1599.43,836.38 1599.49,840.934C1580,837.072 1560.36,837.391 1541.49,843.06C1525.61,1000.22 1467.86,1083.48 1417.91,1269.22C1420.34,1269.14 1422.76,1269.08 1425.2,1269.05L1420.42,1280.63C1413.71,1296.94 1402.93,1311.14 1389.24,1321.93L1388.76,1322.01L1360.58,1291.34C1413.09,1078.04 1479.06,997.541 1493.09,823.172L1494.28,808.413L1499.11,806.249ZM1749.01,876.633C1802.31,936.039 1834.81,1017.61 1821.71,1094.76C1803.83,1200.1 1770.8,1259.19 1730.75,1292.09C1717.92,1302.63 1704.27,1310.63 1689.93,1316.59C1703.6,1286.89 1715.4,1256.16 1725.18,1224.56C1745.7,1194.57 1761.57,1150.31 1772.42,1086.39C1778.31,1051.7 1772.55,1016.1 1758.82,983.066C1758.03,946.932 1754.71,911.417 1749.01,876.633ZM1742.34,950.599C1722.85,918.35 1696.06,890.165 1666.15,869.977C1647.87,857.639 1628.31,848.231 1608.45,843.001C1608.83,835.926 1606.86,828.813 1602.66,822.856C1596.37,813.923 1585.94,808.826 1575.03,809.342C1556.96,810.178 1534.78,808.573 1511.14,800.905C1570.29,776.028 1637.07,790.032 1694.12,828.532C1706.76,837.06 1718.88,846.78 1730.29,857.485C1736.2,887.907 1740.26,918.986 1742.34,950.599Z"/>
                    </g>
                </g>
                <path d="M1000.02,200.025C1441.54,200.025 1800,558.482 1800,1000C1800,1441.52 1441.54,1799.98 1000.02,1799.98C558.497,1799.98 200.037,1441.52 200.037,1000C200.037,558.482 558.497,200.025 1000.02,200.025ZM1000.02,250.025C1413.94,250.025 1750,586.077 1750,1000C1750,1413.92 1413.94,1749.98 1000.02,1749.98C586.093,1749.98 250.037,1413.92 250.037,1000C250.037,586.077 586.093,250.025 1000.02,250.025Z"/>
            </g>
            <g transform="matrix(0.297825,0,0,0.297825,150.08,236.75)">
                <g transform="matrix(265.08,0,0,265.08,319.363,405.157)">
                    <path d="M0.063,-0.727L0.253,-0.727L0.453,-0.239L0.462,-0.239L0.662,-0.727L0.852,-0.727L0.852,0L0.702,0L0.702,-0.473L0.696,-0.473L0.508,-0.004L0.407,-0.004L0.218,-0.475L0.212,-0.475L0.212,0L0.063,0L0.063,-0.727Z" style="fill-rule:nonzero;"/>
                </g>
                <g transform="matrix(265.08,0,0,265.08,551.044,405.157)">
                    <path d="M0.216,0.01C0.164,0.01 0.121,-0.003 0.086,-0.031C0.052,-0.058 0.035,-0.098 0.035,-0.152C0.035,-0.193 0.044,-0.225 0.064,-0.248C0.083,-0.271 0.108,-0.288 0.139,-0.299C0.17,-0.31 0.204,-0.317 0.24,-0.32C0.287,-0.325 0.321,-0.33 0.341,-0.335C0.362,-0.34 0.372,-0.352 0.372,-0.369L0.372,-0.371C0.372,-0.394 0.365,-0.411 0.351,-0.424C0.337,-0.436 0.317,-0.442 0.291,-0.442C0.264,-0.442 0.242,-0.436 0.226,-0.424C0.21,-0.413 0.199,-0.397 0.194,-0.379L0.054,-0.391C0.064,-0.44 0.09,-0.48 0.132,-0.509C0.173,-0.538 0.226,-0.553 0.292,-0.553C0.332,-0.553 0.37,-0.546 0.405,-0.533C0.44,-0.521 0.469,-0.501 0.491,-0.474C0.512,-0.446 0.523,-0.411 0.523,-0.368L0.523,0L0.38,0L0.38,-0.076L0.375,-0.076C0.362,-0.05 0.342,-0.03 0.316,-0.014C0.289,0.002 0.256,0.01 0.216,0.01ZM0.259,-0.094C0.292,-0.094 0.32,-0.104 0.341,-0.123C0.362,-0.142 0.373,-0.166 0.373,-0.195L0.373,-0.253C0.367,-0.249 0.358,-0.245 0.345,-0.242C0.333,-0.239 0.32,-0.236 0.306,-0.234C0.291,-0.232 0.279,-0.23 0.268,-0.228C0.241,-0.225 0.22,-0.217 0.204,-0.206C0.187,-0.195 0.179,-0.179 0.179,-0.157C0.179,-0.136 0.187,-0.121 0.202,-0.11C0.217,-0.099 0.236,-0.094 0.259,-0.094Z" style="fill-rule:nonzero;"/>
                </g>
                <g transform="matrix(265.08,0,0,265.08,691.604,405.157)">
                    <path d="M0.514,-0.39L0.376,-0.381C0.372,-0.399 0.362,-0.414 0.347,-0.426C0.332,-0.439 0.311,-0.445 0.284,-0.445C0.261,-0.445 0.241,-0.44 0.225,-0.431C0.209,-0.421 0.201,-0.408 0.201,-0.391C0.201,-0.378 0.206,-0.367 0.216,-0.358C0.227,-0.349 0.245,-0.342 0.27,-0.337L0.369,-0.317C0.474,-0.295 0.526,-0.246 0.527,-0.169C0.527,-0.133 0.516,-0.102 0.495,-0.075C0.474,-0.048 0.446,-0.027 0.409,-0.012C0.373,0.003 0.331,0.011 0.284,0.011C0.212,0.011 0.154,-0.004 0.111,-0.035C0.068,-0.065 0.043,-0.106 0.036,-0.158L0.185,-0.166C0.19,-0.144 0.201,-0.127 0.218,-0.115C0.235,-0.104 0.257,-0.098 0.284,-0.098C0.311,-0.098 0.332,-0.104 0.348,-0.114C0.364,-0.124 0.373,-0.138 0.373,-0.154C0.372,-0.181 0.349,-0.199 0.303,-0.208L0.208,-0.227C0.103,-0.248 0.05,-0.3 0.051,-0.383C0.051,-0.435 0.072,-0.477 0.114,-0.507C0.156,-0.537 0.212,-0.553 0.282,-0.553C0.351,-0.553 0.405,-0.538 0.445,-0.509C0.484,-0.48 0.508,-0.44 0.514,-0.39Z" style="fill-rule:nonzero;"/>
                </g>
                <g transform="matrix(265.08,0,0,265.08,827.269,405.157)">
                    <path d="M0.06,0L0.06,-0.727L0.212,-0.727L0.212,-0.338L0.22,-0.338L0.395,-0.545L0.568,-0.545L0.366,-0.309L0.578,0L0.401,0L0.252,-0.22L0.212,-0.173L0.212,0L0.06,0Z" style="fill-rule:nonzero;"/>
                </g>
                <g transform="matrix(265.08,0,0,265.08,968.206,405.157)">
                    <path d="M0.514,-0.39L0.376,-0.381C0.372,-0.399 0.362,-0.414 0.347,-0.426C0.332,-0.439 0.311,-0.445 0.284,-0.445C0.261,-0.445 0.241,-0.44 0.225,-0.431C0.209,-0.421 0.201,-0.408 0.201,-0.391C0.201,-0.378 0.206,-0.367 0.216,-0.358C0.227,-0.349 0.245,-0.342 0.27,-0.337L0.369,-0.317C0.474,-0.295 0.526,-0.246 0.527,-0.169C0.527,-0.133 0.516,-0.102 0.495,-0.075C0.474,-0.048 0.446,-0.027 0.409,-0.012C0.373,0.003 0.331,0.011 0.284,0.011C0.212,0.011 0.154,-0.004 0.111,-0.035C0.068,-0.065 0.043,-0.106 0.036,-0.158L0.185,-0.166C0.19,-0.144 0.201,-0.127 0.218,-0.115C0.235,-0.104 0.257,-0.098 0.284,-0.098C0.311,-0.098 0.332,-0.104 0.348,-0.114C0.364,-0.124 0.373,-0.138 0.373,-0.154C0.372,-0.181 0.349,-0.199 0.303,-0.208L0.208,-0.227C0.103,-0.248 0.05,-0.3 0.051,-0.383C0.051,-0.435 0.072,-0.477 0.114,-0.507C0.156,-0.537 0.212,-0.553 0.282,-0.553C0.351,-0.553 0.405,-0.538 0.445,-0.509C0.484,-0.48 0.508,-0.44 0.514,-0.39Z" style="fill-rule:nonzero;"/>
                </g>
                <g transform="matrix(265.08,0,0,265.08,1152.09,405.157)">
                    <path d="M0.063,0L0.063,-0.727L0.545,-0.727L0.545,-0.6L0.217,-0.6L0.217,-0.427L0.513,-0.427L0.513,-0.3L0.217,-0.3L0.217,0L0.063,0Z" style="fill-rule:nonzero;"/>
                </g>
                <g transform="matrix(265.08,0,0,265.08,1283.33,405.157)">
                    <path d="M0.307,0.011C0.252,0.011 0.204,-0.001 0.164,-0.025C0.124,-0.048 0.093,-0.081 0.071,-0.123C0.049,-0.166 0.038,-0.215 0.038,-0.271C0.038,-0.327 0.049,-0.376 0.071,-0.419C0.093,-0.461 0.124,-0.494 0.164,-0.517C0.204,-0.541 0.252,-0.553 0.307,-0.553C0.362,-0.553 0.41,-0.541 0.45,-0.517C0.49,-0.494 0.521,-0.461 0.543,-0.419C0.564,-0.376 0.575,-0.327 0.575,-0.271C0.575,-0.215 0.564,-0.166 0.543,-0.123C0.521,-0.081 0.49,-0.048 0.45,-0.025C0.41,-0.001 0.362,0.011 0.307,0.011ZM0.308,-0.107C0.345,-0.107 0.373,-0.122 0.393,-0.153C0.412,-0.185 0.422,-0.224 0.422,-0.272C0.422,-0.319 0.412,-0.359 0.393,-0.39C0.373,-0.421 0.345,-0.437 0.308,-0.437C0.269,-0.437 0.241,-0.421 0.221,-0.39C0.202,-0.359 0.192,-0.319 0.192,-0.272C0.192,-0.224 0.202,-0.185 0.221,-0.153C0.241,-0.122 0.269,-0.107 0.308,-0.107Z" style="fill-rule:nonzero;"/>
                </g>
                <g transform="matrix(265.08,0,0,265.08,1432.74,405.157)">
                    <path d="M0.06,0L0.06,-0.545L0.207,-0.545L0.207,-0.45L0.213,-0.45C0.223,-0.484 0.239,-0.51 0.263,-0.527C0.286,-0.545 0.313,-0.553 0.344,-0.553C0.358,-0.553 0.372,-0.551 0.385,-0.548C0.397,-0.544 0.408,-0.54 0.418,-0.533L0.373,-0.408C0.366,-0.412 0.358,-0.415 0.35,-0.417C0.341,-0.42 0.332,-0.421 0.321,-0.421C0.291,-0.421 0.265,-0.411 0.244,-0.39C0.223,-0.369 0.212,-0.342 0.212,-0.309L0.212,0L0.06,0Z" style="fill-rule:nonzero;"/>
                </g>
                <g transform="matrix(265.08,0,0,265.08,1581.32,405.157)">
                    <path d="M0.063,0L0.063,-0.727L0.217,-0.727L0.217,-0.427L0.529,-0.427L0.529,-0.727L0.683,-0.727L0.683,0L0.529,0L0.529,-0.3L0.217,-0.3L0.217,0L0.063,0Z" style="fill-rule:nonzero;"/>
                </g>
                <g transform="matrix(265.08,0,0,265.08,1765.84,405.157)">
                    <path d="M0.41,-0.232L0.41,-0.545L0.561,-0.545L0.561,0L0.416,0L0.416,-0.099L0.411,-0.099C0.398,-0.067 0.378,-0.041 0.349,-0.022C0.321,-0.003 0.286,0.007 0.245,0.007C0.19,0.007 0.146,-0.011 0.112,-0.048C0.078,-0.084 0.061,-0.134 0.06,-0.198L0.06,-0.545L0.212,-0.545L0.212,-0.225C0.212,-0.193 0.221,-0.167 0.238,-0.149C0.255,-0.13 0.277,-0.121 0.306,-0.121C0.333,-0.121 0.358,-0.13 0.379,-0.149C0.4,-0.168 0.41,-0.196 0.41,-0.232Z" style="fill-rule:nonzero;"/>
                </g>
                <g transform="matrix(265.08,0,0,265.08,1917.41,405.157)">
                    <path d="M0.212,-0.315L0.212,0L0.06,0L0.06,-0.545L0.205,-0.545L0.205,-0.449L0.211,-0.449C0.223,-0.481 0.244,-0.506 0.272,-0.525C0.3,-0.543 0.335,-0.553 0.375,-0.553C0.432,-0.553 0.477,-0.534 0.512,-0.498C0.546,-0.461 0.563,-0.411 0.563,-0.347L0.563,0L0.412,0L0.412,-0.32C0.412,-0.354 0.404,-0.38 0.386,-0.399C0.369,-0.417 0.345,-0.427 0.315,-0.427C0.284,-0.427 0.26,-0.417 0.241,-0.398C0.222,-0.378 0.212,-0.351 0.212,-0.315Z" style="fill-rule:nonzero;"/>
                </g>
                <g transform="matrix(265.08,0,0,265.08,2068.98,405.157)">
                    <path d="M0.306,0.212C0.233,0.212 0.175,0.198 0.133,0.169C0.091,0.14 0.066,0.105 0.057,0.064L0.197,0.045C0.203,0.06 0.215,0.073 0.233,0.085C0.251,0.098 0.276,0.104 0.31,0.104C0.343,0.104 0.37,0.096 0.391,0.08C0.413,0.065 0.423,0.039 0.423,0.003L0.423,-0.097L0.417,-0.097C0.407,-0.074 0.389,-0.054 0.364,-0.035C0.339,-0.017 0.305,-0.008 0.261,-0.008C0.22,-0.008 0.183,-0.017 0.15,-0.037C0.116,-0.056 0.09,-0.085 0.07,-0.124C0.05,-0.164 0.04,-0.213 0.04,-0.274C0.04,-0.336 0.05,-0.387 0.07,-0.429C0.091,-0.47 0.118,-0.501 0.151,-0.521C0.185,-0.542 0.221,-0.553 0.261,-0.553C0.292,-0.553 0.317,-0.547 0.338,-0.537C0.358,-0.527 0.375,-0.514 0.388,-0.499C0.401,-0.484 0.41,-0.469 0.417,-0.454L0.423,-0.454L0.423,-0.545L0.573,-0.545L0.573,0.005C0.573,0.051 0.561,0.089 0.539,0.119C0.516,0.15 0.484,0.173 0.444,0.189C0.404,0.205 0.358,0.212 0.306,0.212ZM0.309,-0.121C0.346,-0.121 0.374,-0.135 0.394,-0.162C0.414,-0.189 0.424,-0.226 0.424,-0.275C0.424,-0.322 0.414,-0.361 0.394,-0.389C0.374,-0.418 0.346,-0.432 0.309,-0.432C0.272,-0.432 0.243,-0.417 0.224,-0.388C0.204,-0.359 0.195,-0.321 0.195,-0.275C0.195,-0.227 0.204,-0.19 0.224,-0.163C0.244,-0.135 0.272,-0.121 0.309,-0.121Z" style="fill-rule:nonzero;"/>
                </g>
                <g transform="matrix(265.08,0,0,265.08,2223.57,405.157)">
                    <path d="M0.309,0.011C0.253,0.011 0.205,-0.001 0.164,-0.024C0.124,-0.046 0.093,-0.079 0.071,-0.121C0.049,-0.163 0.038,-0.213 0.038,-0.27C0.038,-0.326 0.049,-0.376 0.071,-0.418C0.093,-0.46 0.124,-0.493 0.163,-0.517C0.203,-0.541 0.249,-0.553 0.303,-0.553C0.351,-0.553 0.394,-0.542 0.433,-0.522C0.472,-0.502 0.502,-0.471 0.525,-0.43C0.548,-0.389 0.559,-0.337 0.559,-0.276L0.559,-0.234L0.188,-0.234L0.188,-0.234C0.188,-0.193 0.199,-0.161 0.221,-0.137C0.243,-0.114 0.274,-0.102 0.311,-0.102C0.337,-0.102 0.359,-0.108 0.377,-0.118C0.396,-0.129 0.409,-0.145 0.416,-0.165L0.556,-0.156C0.545,-0.106 0.518,-0.065 0.475,-0.035C0.432,-0.004 0.376,0.011 0.309,0.011ZM0.188,-0.328L0.417,-0.328C0.417,-0.36 0.406,-0.387 0.386,-0.408C0.365,-0.429 0.338,-0.44 0.305,-0.44C0.272,-0.44 0.244,-0.429 0.223,-0.407C0.201,-0.385 0.19,-0.359 0.188,-0.328Z" style="fill-rule:nonzero;"/>
                </g>
                <g transform="matrix(265.08,0,0,265.08,2368.74,405.157)">
                    <path d="M0.06,0L0.06,-0.545L0.207,-0.545L0.207,-0.45L0.213,-0.45C0.223,-0.484 0.239,-0.51 0.263,-0.527C0.286,-0.545 0.313,-0.553 0.344,-0.553C0.358,-0.553 0.372,-0.551 0.385,-0.548C0.397,-0.544 0.408,-0.54 0.418,-0.533L0.373,-0.408C0.366,-0.412 0.358,-0.415 0.35,-0.417C0.341,-0.42 0.332,-0.421 0.321,-0.421C0.291,-0.421 0.265,-0.411 0.244,-0.39C0.223,-0.369 0.212,-0.342 0.212,-0.309L0.212,0L0.06,0Z" style="fill-rule:nonzero;"/>
                </g>
            </g>
        </g>
    </g>
</svg>
